<?xml version="1.0" encoding="UTF-8"?>
<svg width="512" height="512" viewBox="0 0 512 512" fill="none" xmlns="http://www.w3.org/2000/svg">
    <!-- Nền tròn với gradient -->
    <circle cx="256" cy="256" r="256" fill="url(#gradient)"/>
    
    <!-- Chữ CA -->
    <path d="M180 340C158 340 139.333 333.667 124 321C108.667 308.333 97.3333 291.333 90 270C82.6667 248.667 79 224.667 79 198C79 171.333 82.6667 147.333 90 126C97.3333 104.667 108.667 87.6667 124 75C139.333 62.3333 158 56 180 56C196 56 210.333 59 223 65C235.667 71 246.333 79.6667 255 91L226 116C220.667 108.667 214.333 103 207 99C199.667 95 191.667 93 183 93C169.667 93 158.333 97 149 105C139.667 113 132.667 124.333 128 139C123.333 153.667 121 174.333 121 198C121 221.667 123.333 242.333 128 257C132.667 271.667 139.667 283 149 291C158.333 299 169.667 303 183 303C191.667 303 199.667 301 207 297C214.333 293 220.667 287.333 226 280L255 305C246.333 316.333 235.667 325 223 331C210.333 337 196 340 180 340Z" fill="white"/>
    
    <path d="M433 198C433 171.333 429.333 147.333 422 126C414.667 104.667 403.333 87.6667 388 75C372.667 62.3333 354 56 332 56C310 56 291.333 62.3333 276 75C260.667 87.6667 249.333 104.667 242 126C234.667 147.333 231 171.333 231 198C231 224.667 234.667 248.667 242 270C249.333 291.333 260.667 308.333 276 321C291.333 333.667 310 340 332 340C354 340 372.667 333.667 388 321C403.333 308.333 414.667 291.333 422 270C429.333 248.667 433 224.667 433 198ZM391 198C391 221.667 388.667 242.333 384 257C379.333 271.667 372.333 283 363 291C353.667 299 342.333 303 329 303C315.667 303 304.333 299 295 291C285.667 283 278.667 271.667 274 257C269.333 242.333 267 221.667 267 198C267 174.333 269.333 153.667 274 139C278.667 124.333 285.667 113 295 105C304.333 97 315.667 93 329 93C342.333 93 353.667 97 363 105C372.333 113 379.333 124.333 384 139C388.667 153.667 391 174.333 391 198Z" fill="white"/>
    
    <!-- Gradient definition -->
    <defs>
        <linearGradient id="gradient" x1="0" y1="0" x2="512" y2="512" gradientUnits="userSpaceOnUse">
            <stop offset="0%" style="stop-color:#3B82F6"/>
            <stop offset="100%" style="stop-color:#1D4ED8"/>
        </linearGradient>
    </defs>
</svg> 